<?xml version="1.0" standalone="no"?>
<!DOCTYPE svg PUBLIC "-//W3C//DTD SVG 20010904//EN"
 "http://www.w3.org/TR/2001/REC-SVG-20010904/DTD/svg10.dtd">
<svg version="1.0" xmlns="http://www.w3.org/2000/svg"
 width="96.000000pt" height="96.000000pt" viewBox="0 0 96.000000 96.000000"
 preserveAspectRatio="xMidYMid meet">
<metadata>
Created by potrace 1.11, written by Peter Selinger 2001-2013
</metadata>
<g transform="translate(0.000000,96.000000) scale(0.100000,-0.100000)"
fill="#000000" stroke="none">
<path d="M40 840 c0 -40 0 -40 40 -40 l39 0 65 -134 c35 -74 67 -143 70 -154
4 -12 -4 -40 -24 -75 -35 -64 -38 -95 -11 -128 19 -24 20 -24 280 -27 l261 -3
0 41 0 40 -235 0 c-164 0 -235 3 -235 11 0 6 8 24 17 40 l17 29 164 0 c156 0
164 1 185 23 25 24 167 281 167 301 0 34 -21 36 -327 36 l-303 0 -20 40 -20
40 -65 0 -65 0 0 -40z"/>
<path d="M229 221 c-18 -14 -24 -29 -24 -60 0 -49 18 -70 68 -78 30 -5 40 -1
61 22 40 43 34 95 -15 120 -38 20 -62 19 -90 -4z"/>
<path d="M624 213 c-47 -51 -11 -133 58 -133 44 0 81 45 74 90 -11 70 -85 93
-132 43z"/>
</g>
</svg>
